<?xml version="1.0" standalone="no"?>
<!DOCTYPE svg PUBLIC "-//W3C//DTD SVG 20010904//EN"
 "http://www.w3.org/TR/2001/REC-SVG-20010904/DTD/svg10.dtd">
<svg version="1.0" xmlns="http://www.w3.org/2000/svg"
 width="432.000000pt" height="432.000000pt" viewBox="0 0 432.000000 432.000000"
 preserveAspectRatio="xMidYMid meet">
<metadata>
Created by potrace 1.14, written by Peter Selinger 2001-2017
</metadata>
<g transform="translate(0.000000,432.000000) scale(0.100000,-0.100000)"
fill="#000000" stroke="none">
<path d="M1530 3072 c-14 -2 -30 -8 -37 -14 -7 -5 -17 -7 -23 -3 -5 3 -10 1
-10 -4 0 -6 -5 -11 -11 -11 -5 0 -7 5 -4 10 3 6 1 10 -4 10 -6 0 -11 -6 -11
-14 0 -8 -8 -17 -17 -21 -17 -6 -17 -7 -1 -19 15 -11 15 -13 -4 -25 -18 -11
-20 -11 -15 3 4 9 2 16 -4 16 -6 0 -6 8 1 21 7 11 9 23 6 27 -3 3 -6 0 -6 -5
0 -6 -11 -10 -25 -8 -25 2 -25 1 -10 -21 19 -29 19 -40 1 -25 -11 9 -15 9 -20
-1 -4 -9 -5 -9 -5 2 2 31 -1 39 -16 34 -8 -3 -13 -10 -12 -15 1 -5 -14 -19
-33 -31 -19 -12 -32 -18 -28 -13 12 12 -11 35 -29 28 -12 -5 -12 -7 -1 -15 9
-7 7 -8 -8 -4 -40 12 -230 -85 -309 -157 -39 -36 -140 -98 -167 -104 -16 -3
-31 -10 -34 -14 -3 -5 -16 -9 -30 -9 -21 0 -24 -4 -19 -20 5 -16 2 -20 -17
-19 -21 0 -21 1 -4 8 11 4 15 10 10 14 -6 3 -26 -5 -45 -17 -66 -46 -93 -93
-109 -192 -23 -132 -151 -328 -250 -380 -54 -29 -91 -60 -115 -96 -9 -16 -25
-28 -35 -28 -9 0 -25 -10 -36 -22 -16 -19 -16 -20 -1 -9 21 17 26 13 29 -22 2
-18 13 -32 40 -47 39 -22 49 -40 22 -40 -22 0 -82 48 -90 72 -3 11 -8 17 -11
14 -3 -3 3 -18 13 -33 10 -15 19 -32 20 -38 0 -5 2 -15 2 -22 1 -7 9 -10 17
-7 8 4 15 1 15 -5 0 -6 -3 -11 -7 -11 -5 0 -13 -12 -20 -26 -23 -50 16 -94 83
-94 13 0 24 -4 24 -9 0 -5 10 -12 22 -16 22 -7 29 -9 53 -15 6 -1 18 -2 27 -1
20 2 120 -31 186 -61 43 -20 60 -19 47 1 -3 6 -15 11 -26 11 -11 0 -22 7 -25
15 -4 8 -17 15 -30 15 -13 0 -24 5 -24 11 0 7 -10 9 -25 7 -21 -4 -23 -3 -14
9 10 12 7 13 -21 8 -26 -5 -31 -3 -23 7 6 7 12 22 14 32 5 24 37 30 56 10 8
-8 19 -11 25 -8 6 4 14 0 19 -7 13 -21 11 -29 -6 -23 -8 4 -12 11 -8 18 4 6
-2 4 -12 -4 -11 -9 -16 -10 -11 -2 4 6 4 13 -1 13 -38 6 -50 4 -50 -8 0 -9 4
-10 11 -3 15 15 26 12 26 -6 0 -9 6 -14 13 -11 8 3 20 1 28 -3 8 -5 19 -4 26
2 10 8 12 7 7 -5 -4 -12 -1 -14 17 -10 17 5 20 3 14 -8 -7 -12 -6 -12 7 -1 12
10 20 8 42 -13 14 -13 26 -21 26 -18 0 3 7 0 15 -7 8 -7 15 -9 15 -5 0 4 7 2
15 -5 8 -7 12 -17 8 -24 -4 -6 1 -5 10 3 12 9 17 10 17 2 0 -7 5 -9 10 -6 6 3
10 2 10 -3 0 -6 7 -13 16 -16 8 -3 12 -2 9 3 -3 5 -1 13 5 16 17 10 8 -64 -9
-78 -10 -8 -13 -8 -8 -1 4 7 0 15 -9 18 -10 4 -13 2 -8 -7 3 -6 -6 2 -21 18
-15 17 -33 29 -41 27 -8 -2 -14 2 -14 8 0 7 -8 9 -20 5 -14 -5 -20 -2 -20 9 0
20 -16 21 -23 2 -4 -10 15 -25 61 -49 37 -19 84 -44 104 -55 29 -16 37 -18 42
-7 2 7 -2 16 -10 19 -8 3 -14 11 -14 17 0 8 5 7 18 -2 16 -13 16 -13 -1 7 -22
27 -11 37 19 18 13 -9 28 -13 34 -9 6 4 10 3 9 -2 -3 -19 2 -31 17 -37 10 -4
13 -2 8 6 -5 8 -2 9 12 4 10 -5 25 -9 32 -9 6 0 12 -4 12 -9 0 -5 4 -7 9 -4 5
4 11 1 13 -4 5 -15 41 -19 50 -6 5 7 8 6 8 -4 0 -25 -31 -38 -67 -28 -18 5
-32 12 -32 16 3 19 -2 32 -12 32 -8 0 -8 -4 0 -14 9 -11 8 -15 -5 -20 -22 -8
-24 -8 -20 7 1 6 1 9 -1 5 -8 -14 -23 -8 -23 8 0 10 -7 14 -22 12 -36 -5 -30
-22 15 -42 53 -24 59 -25 76 -12 11 8 13 8 8 -1 -4 -6 -2 -15 4 -19 8 -4 9 -3
5 4 -4 7 -3 12 3 12 5 0 11 -4 13 -10 2 -5 23 -11 48 -14 25 -3 56 -7 70 -10
46 -10 70 -16 93 -22 12 -3 60 -5 107 -4 292 7 357 5 455 -15 116 -24 292 -30
355 -13 30 9 78 16 105 17 84 3 197 30 210 51 6 10 86 37 135 45 74 13 187 80
262 157 20 21 39 38 41 38 3 0 17 -24 31 -52 30 -60 48 -91 57 -98 3 -3 12
-16 19 -30 13 -26 106 -156 127 -178 6 -7 16 -11 21 -10 4 2 19 -10 33 -25
l24 -29 20 22 c12 13 14 20 6 18 -7 -2 -16 3 -18 10 -6 16 27 4 45 -17 8 -9
11 -10 7 -3 -3 6 1 15 9 18 9 3 16 11 16 16 0 7 -5 6 -13 0 -15 -13 -58 11
-56 31 0 9 2 8 6 -1 2 -7 14 -17 25 -23 19 -10 20 -9 15 10 -3 11 -1 21 4 21
5 0 9 -3 9 -7 0 -5 13 -9 30 -10 22 -2 33 4 42 20 6 12 11 23 10 25 -1 1 -2 5
-2 10 0 4 5 0 10 -8 9 -13 10 -13 10 0 0 8 7 28 15 44 13 24 13 31 3 38 -10 6
-8 8 5 8 10 0 17 8 17 18 0 10 3 22 7 26 12 12 12 36 0 37 -7 0 -4 3 5 7 16 6
16 10 4 34 -8 14 -10 30 -6 35 16 15 -1 58 -28 72 -15 7 -75 33 -134 56 -146
59 -147 60 -117 75 13 7 44 34 69 60 41 44 50 49 104 55 86 11 184 -17 226
-66 10 -12 47 -21 99 -25 30 -2 58 -9 61 -14 8 -13 202 -210 272 -277 57 -53
68 -57 131 -39 15 5 27 12 27 18 0 5 5 6 11 3 6 -4 9 0 7 11 -2 12 6 23 20 29
12 5 22 13 22 17 0 5 6 8 14 8 7 0 21 16 31 36 10 21 28 39 44 45 15 5 28 17
29 27 5 48 10 63 25 75 25 18 36 60 30 107 -4 29 -2 45 7 50 14 9 25 100 12
100 -13 0 -10 33 5 48 7 8 10 19 6 25 -8 13 -13 30 -17 61 -1 10 -10 24 -19
31 -15 11 -15 14 -3 24 11 9 12 20 5 44 -5 18 -14 34 -19 35 -6 2 -7 9 -4 14
4 6 2 8 -3 5 -6 -4 -16 0 -23 8 -10 12 -9 15 6 15 13 0 15 3 7 8 -6 4 -16 19
-21 32 -5 14 -23 32 -38 40 -52 26 -56 31 -37 47 10 8 12 11 4 7 -11 -5 -13
-3 -8 9 4 12 -2 21 -22 32 -16 8 -32 11 -36 7 -3 -4 -6 -2 -5 3 5 22 -1 27
-16 15 -8 -8 -14 -9 -13 -4 4 21 -2 28 -12 14 -8 -11 -12 -12 -16 -2 -2 6 -9
12 -14 12 -16 0 -273 -176 -315 -215 -45 -43 -124 -86 -159 -87 -22 0 -60 -10
-85 -21 -102 -45 -126 -54 -140 -50 -12 4 -12 3 -2 -5 17 -12 17 -19 -2 -38
-19 -19 -86 -9 -86 12 0 8 5 14 10 14 6 0 10 5 10 12 0 6 -3 9 -6 5 -9 -9 -85
23 -113 47 -12 12 -32 41 -44 66 -29 62 -73 103 -132 125 -67 25 -78 34 -64
51 17 21 45 17 153 -21 93 -33 100 -34 112 -17 7 9 14 26 14 37 l1 20 9 -20
c6 -15 9 -16 11 -5 5 36 4 45 -6 52 -6 5 -5 8 3 8 10 0 10 5 2 20 -9 16 -8 20
5 20 9 0 15 -9 15 -25 0 -14 4 -25 9 -25 5 0 8 12 5 26 -3 18 -1 23 7 18 7 -4
9 -3 5 4 -3 5 -1 12 6 14 7 3 5 7 -6 11 -9 4 -15 3 -12 -1 2 -4 -5 -9 -17 -9
-19 -2 -18 0 7 16 19 13 24 20 14 24 -10 4 -10 6 0 6 7 1 11 5 7 10 -3 6 4 15
15 21 15 8 18 15 11 28 -6 11 -6 24 0 35 11 19 -1 23 -19 5 -7 -7 -12 -9 -12
-6 0 4 8 14 17 24 17 17 16 17 -17 11 -25 -5 -31 -4 -20 3 8 5 26 10 40 11 18
1 20 3 7 6 -18 5 -18 5 0 19 16 12 15 13 -17 9 l-35 -5 34 11 c27 8 31 13 20
20 -8 5 -10 9 -5 9 5 0 3 6 -3 13 -6 8 -8 17 -4 21 4 4 -10 0 -31 -9 -21 -9
-35 -11 -31 -6 3 6 12 11 20 11 8 0 17 5 21 11 4 8 -1 9 -17 4 -17 -4 -20 -4
-10 4 17 11 24 41 10 41 -6 0 -7 4 -4 10 4 6 -1 7 -11 3 -11 -4 -15 -3 -10 5
4 6 -5 19 -21 29 -15 10 -32 22 -36 28 -5 6 -7 3 -4 -7 6 -18 -19 -33 -28 -18
-13 21 -43 8 -119 -49 -86 -65 -172 -146 -244 -229 -35 -41 -47 -50 -58 -41
-8 6 -14 22 -14 34 0 23 -50 70 -121 113 -19 11 -52 40 -73 62 -31 33 -86 61
-98 50 -2 -1 -27 12 -56 29 -59 34 -226 95 -245 88 -6 -2 -18 2 -25 9 -7 7
-29 16 -50 19 -20 3 -61 12 -90 21 -29 8 -56 13 -61 9 -5 -3 -11 0 -13 7 -4
12 -201 20 -258 10z m-150 -52 c0 -5 -5 -10 -11 -10 -5 0 -7 5 -4 10 3 6 8 10
11 10 2 0 4 -4 4 -10z m65 0 c-3 -5 -14 -10 -23 -10 -15 0 -15 2 -2 10 20 13
33 13 25 0z m1761 -225 c1 -8 -2 -13 -7 -9 -5 3 -9 12 -9 21 0 19 13 9 16 -12z
m-2486 -124 c-8 -5 -17 -8 -21 -5 -4 2 -10 0 -14 -6 -4 -6 -11 -8 -16 -5 -19
12 -8 21 29 23 26 2 33 -1 22 -7z m2464 -23 c-5 -8 -2 -9 9 -5 9 3 19 2 22 -3
4 -6 -3 -10 -14 -10 -21 0 -35 13 -24 24 10 10 15 7 7 -6z m157 -517 c-19 -16
-51 -19 -51 -5 0 6 64 32 69 28 2 -2 -6 -13 -18 -23z m-2961 -372 c0 -6 -4 -8
-9 -5 -4 3 -6 -7 -3 -22 3 -15 1 -24 -3 -20 -12 11 -35 -11 -35 -33 0 -11 -4
-19 -9 -19 -16 0 -7 34 14 54 14 13 16 20 8 23 -16 6 -17 33 -2 33 5 0 7 5 3
11 -4 8 0 8 15 0 11 -7 21 -16 21 -22z m113 -12 c4 3 7 -1 7 -10 0 -9 -5 -19
-12 -23 -7 -5 -8 -3 -3 6 5 9 4 11 -4 6 -6 -4 -19 -2 -27 5 -8 6 -17 9 -21 5
-3 -3 -1 -6 6 -6 8 0 11 -6 7 -16 -3 -8 -2 -12 4 -9 5 3 18 1 27 -5 17 -11 17
-11 1 -6 -10 3 -18 1 -18 -4 0 -6 -8 -5 -19 2 -11 6 -17 18 -13 26 4 11 1 13
-9 7 -8 -4 -3 4 11 17 22 22 27 24 41 12 9 -8 19 -11 22 -7z m2737 -348 c0 -5
6 -9 14 -9 8 0 18 -4 21 -10 12 -19 -14 -10 -42 15 -17 15 -21 23 -10 19 9 -3
17 -10 17 -15z m-15 -109 c3 -6 -1 -7 -9 -4 -18 7 -21 14 -7 14 6 0 13 -4 16
-10z"/>
<path d="M1254 2998 c-11 -17 6 -22 22 -7 13 14 13 16 -1 16 -9 0 -18 -4 -21
-9z"/>
<path d="M3205 2600 c3 -5 8 -10 11 -10 2 0 4 5 4 10 0 6 -5 10 -11 10 -5 0
-7 -4 -4 -10z"/>
<path d="M3220 2140 c0 -5 5 -10 11 -10 5 0 7 5 4 10 -3 6 -8 10 -11 10 -2 0
-4 -4 -4 -10z"/>
<path d="M480 1600 c-12 -7 -10 -9 7 -7 12 0 19 5 17 9 -6 10 -6 10 -24 -2z"/>
<path d="M667 1519 c7 -7 15 -10 18 -7 3 3 -2 9 -12 12 -14 6 -15 5 -6 -5z"/>
<path d="M753 1477 c0 -8 6 -14 14 -14 9 0 10 4 2 14 -6 7 -12 13 -14 13 -1 0
-2 -6 -2 -13z"/>
<path d="M871 1426 c2 -2 15 -9 29 -15 24 -11 24 -11 6 3 -16 13 -49 24 -35
12z"/>
<path d="M3110 1200 c0 -5 5 -10 10 -10 6 0 10 5 10 10 0 6 -4 10 -10 10 -5 0
-10 -4 -10 -10z"/>
</g>
</svg>
